<?xml version="1.0" standalone="yes"?>

<svg version="1.1" viewBox="0.0 0.0 960.0 720.0" fill="none" stroke="none" stroke-linecap="square" stroke-miterlimit="10" xmlns="http://www.w3.org/2000/svg" xmlns:xlink="http://www.w3.org/1999/xlink"><clipPath id="p.0"><path d="m0 0l960.0 0l0 720.0l-960.0 0l0 -720.0z" clip-rule="nonzero"></path></clipPath><g clip-path="url(#p.0)"><path fill="#000000" fill-opacity="0.0" d="m0 0l960.0 0l0 720.0l-960.0 0z" fill-rule="nonzero"></path><path fill="#f3f3f3" d="m0 0l960.0 0l0 720.0l-960.0 0z" fill-rule="nonzero"></path><path stroke="#000000" stroke-width="2.0" stroke-linejoin="round" stroke-linecap="butt" d="m0 0l960.0 0l0 720.0l-960.0 0z" fill-rule="nonzero"></path><path fill="#ff0000" d="m141.93701 248.00073l0 0c0 -7.4449615 6.0353394 -13.480316 13.480316 -13.480316l0 0c3.5751953 0 7.0039673 1.4202576 9.532013 3.9483032c2.528061 2.5280457 3.9483032 5.9568176 3.9483032 9.532013l0 0c0 7.444977 -6.0353546 13.480316 -13.480316 13.480316l0 0c-7.444977 0 -13.480316 -6.0353394 -13.480316 -13.480316z" fill-rule="nonzero"></path><path fill="#000000" fill-opacity="0.0" d="m120.34707 280.0l86.14112 -80.0" fill-rule="nonzero"></path><path stroke="#ff0000" stroke-width="4.0" stroke-linejoin="round" stroke-linecap="butt" d="m120.34707 280.0l68.55529 -63.667877" fill-rule="evenodd"></path><path fill="#ff0000" stroke="#ff0000" stroke-width="4.0" stroke-linecap="butt" d="m193.39839 221.17331l8.805008 -17.193985l-17.797104 7.511612z" fill-rule="evenodd"></path><path fill="#000000" fill-opacity="0.0" d="m131.27559 226.89764l48.283463 0l0 42.204712l-48.283463 0z" fill-rule="nonzero"></path><path fill="#000000" d="m157.71384 254.92l-2.609375 0l0 -9.828125q-1.4375 1.34375 -3.375 1.984375l0 -2.375q1.03125 -0.328125 2.21875 -1.25q1.203125 -0.9375 1.640625 -2.1875l2.125 0l0 13.65625z" fill-rule="nonzero"></path><path fill="#ead1dc" d="m26.692608 328.0c1.6958237 0 3.0705585 -1.3747253 3.0705585 -3.0705566l-3.0705585 0c0.84791183 0 1.5352802 -0.6873779 1.5352802 -1.5352783c0 -0.8479309 -0.6873684 -1.5352783 -1.5352802 -1.5352783l3.0705585 0l0 -86.78833l0 0c0 -1.695816 1.3747368 -3.0705566 3.0705624 -3.0705566l90.58389 0c1.6958237 0 3.0705643 1.3747406 3.0705643 3.0705566c0 1.6958313 -1.3747406 3.0705566 -3.0705643 3.0705566l-3.0705566 0l0 86.78833c0 1.6958313 -1.374733 3.0705566 -3.0705566 3.0705566zm9.211678 -92.92944l0 0c0 1.6958313 -1.374733 3.0705566 -3.0705566 3.0705566c-0.84791374 0 -1.5352821 -0.6873627 -1.5352821 -1.5352783c0 -0.8479004 0.6873684 -1.5352783 1.5352821 -1.5352783z" fill-rule="nonzero"></path><path fill="#bba7af" d="m35.904285 235.07056l0 0c0 1.6958313 -1.374733 3.0705566 -3.0705566 3.0705566c-0.84791374 0 -1.5352821 -0.6873627 -1.5352821 -1.5352783c0 -0.8479004 0.6873684 -1.5352783 1.5352821 -1.5352783zm-6.141119 89.85889c0 1.6958313 -1.3747349 3.0705566 -3.0705585 3.0705566c-1.6958237 0 -3.0705605 -1.3747253 -3.0705605 -3.0705566c0 -1.6958313 1.3747368 -3.0705566 3.0705605 -3.0705566l0 0c0.84791183 0 1.5352802 0.6873474 1.5352802 1.5352783c0 0.8479004 -0.6873684 1.5352783 -1.5352802 1.5352783z" fill-rule="nonzero"></path><path fill="#000000" fill-opacity="0.0" d="m29.763166 321.8589l0 -86.78833l0 0c0 -1.695816 1.3747368 -3.0705566 3.0705624 -3.0705566l90.58389 0c1.6958237 0 3.0705643 1.3747406 3.0705643 3.0705566c0 1.6958313 -1.3747406 3.0705566 -3.0705643 3.0705566l-3.0705566 0l0 86.78833c0 1.6958313 -1.374733 3.0705566 -3.0705566 3.0705566l-90.58391 0c-1.6958237 0 -3.0705605 -1.3747253 -3.0705605 -3.0705566c0 -1.6958313 1.3747368 -3.0705566 3.0705605 -3.0705566zm3.0705624 -89.85889l0 0c1.6958237 0 3.0705566 1.3747406 3.0705566 3.0705566c0 1.6958313 -1.374733 3.0705566 -3.0705566 3.0705566c-0.84791374 0 -1.5352821 -0.6873627 -1.5352821 -1.5352783c0 -0.8479004 0.6873684 -1.5352783 1.5352821 -1.5352783l3.0705566 0m84.44278 3.0705566l-87.513336 0m-6.141121 83.71777l0 0c0.84791183 0 1.5352802 0.6873474 1.5352802 1.5352783c0 0.8479004 -0.6873684 1.5352783 -1.5352802 1.5352783l3.0705585 0m-3.0705585 3.0705566c1.6958237 0 3.0705585 -1.3747253 3.0705585 -3.0705566l0 -3.0705566" fill-rule="nonzero"></path><path stroke="#000000" stroke-width="1.0" stroke-linejoin="round" stroke-linecap="butt" d="m29.763166 321.8589l0 -86.78833l0 0c0 -1.695816 1.3747368 -3.0705566 3.0705624 -3.0705566l90.58389 0c1.6958237 0 3.0705643 1.3747406 3.0705643 3.0705566c0 1.6958313 -1.3747406 3.0705566 -3.0705643 3.0705566l-3.0705566 0l0 86.78833c0 1.6958313 -1.374733 3.0705566 -3.0705566 3.0705566l-90.58391 0c-1.6958237 0 -3.0705605 -1.3747253 -3.0705605 -3.0705566c0 -1.6958313 1.3747368 -3.0705566 3.0705605 -3.0705566zm3.0705624 -89.85889l0 0c1.6958237 0 3.0705566 1.3747406 3.0705566 3.0705566c0 1.6958313 -1.374733 3.0705566 -3.0705566 3.0705566c-0.84791374 0 -1.5352821 -0.6873627 -1.5352821 -1.5352783c0 -0.8479004 0.6873684 -1.5352783 1.5352821 -1.5352783l3.0705566 0m84.44278 3.0705566l-87.513336 0m-6.141121 83.71777l0 0c0.84791183 0 1.5352802 0.6873474 1.5352802 1.5352783c0 0.8479004 -0.6873684 1.5352783 -1.5352802 1.5352783l3.0705585 0m-3.0705585 3.0705566c1.6958237 0 3.0705585 -1.3747253 3.0705585 -3.0705566l0 -3.0705566" fill-rule="nonzero"></path><path fill="#000000" d="m59.11762 277.6115q0.296875 0 0.296875 -0.3125l0 -4.59375l-1.40625 0.375q-0.078125 0.59375 -0.375 0.21875l-0.515625 -1.640625l2.296875 -0.4375l0 -3.9375l-1.921875 0l0 -1.40625l1.921875 0l0 -3.859375l1.421875 0q0.59375 0.078125 0.0625 0.4375l0 3.421875l1.71875 0l0 1.40625l-1.71875 0l0 3.640625l1.71875 -0.515625l0.21875 1.328125l-1.9375 0.59375l0 5.5q0 1.1875 -1.1875 1.1875l-1.328125 0l-0.21875 -1.40625l0.953125 0zm6.171871 -7.578125l2.59375 0l0 -1.40625l-3.125 0l0 10.53125l-1.4843712 0l0 -11.71875l2.8281212 0l-0.96875 -2.15625l-2.2968712 0l0 -1.1875l4.671871 0l0 -2.15625l1.640625 0q0.734375 0.15625 0.0625 0.59375l0 1.5625l4.90625 0l0 1.1875l-2.453125 0l-1.109375 2.15625l3.265625 0l0 10.234375q0 1.1875 -1.1875 1.1875l-1.703125 0l-0.234375 -1.40625l1.34375 0q0.296875 0 0.296875 -0.296875l0 -8.53125l-3.1875 0l0 1.40625l2.671875 0l0 1.1875l-2.671875 0l0 1.484375l1.921875 0l0 4.078125l-3.78125 0l0 0.828125l-1.265625 0l0 -4.90625l1.859375 0l0 -1.484375l-2.59375 0l0 -1.1875zm2.21875 -2.59375l1.640625 0l0.890625 -2.15625l-3.34375 0l0.8125 2.15625zm2.296875 8.15625l0 -1.703125l-2.515625 0l0 1.703125l2.515625 0z" fill-rule="nonzero"></path><path fill="#000000" d="m78.867615 267.14276l0 -1.34375q1.40625 0.078125 2.453125 0.078125l7.5625 0l0.15625 -1.640625l-7.796875 0q-1.484375 0 -3.046875 0.078125l0 -1.40625q1.5625 0.140625 2.96875 0.140625l9.5 0q-0.296875 2.671875 -0.515625 5.71875q1.625 0 3.046875 -0.078125l0 1.34375q-1.265625 -0.078125 -2.609375 -0.078125l-4.96875 0l0 1.5625q0.75 1.265625 1.40625 1.78125q2.15625 -1.484375 3.046875 -2.453125q0.75 0.59375 1.40625 1.1875q-1.25 0.59375 -3.5625 2.15625q1.1875 1.1875 2.296875 1.703125q1.125 0.515625 3.046875 0.96875q-0.8125 0.890625 -1.03125 1.703125q-2.0 -0.890625 -3.671875 -2.078125q-1.671875 -1.1875 -2.9375 -2.890625l0 3.9375q0 1.03125 -0.96875 1.40625q-0.953125 0.375 -2.0 0.515625q-0.078125 -0.890625 -0.59375 -1.78125q1.40625 0.078125 1.703125 -0.109375q0.296875 -0.1875 0.296875 -0.859375l0 -6.75l-5.046875 0q-1.328125 0 -2.734375 0.078125l0 -1.34375q1.40625 0.078125 2.734375 0.078125l9.65625 0l0.140625 -1.625l-9.9375 0zm4.890625 7.34375q-1.328125 0.8125 -3.0 1.640625q-1.671875 0.8125 -3.53125 1.921875q-0.4375 -0.8125 -1.109375 -1.484375q2.375 -0.75 4.15625 -1.640625q1.78125 -0.890625 3.1875 -1.703125q0.15625 0.671875 0.296875 1.265625zm-4.96875 -3.78125q1.78125 1.328125 2.890625 2.296875q-0.4375 0.4375 -0.953125 1.109375q-1.421875 -1.40625 -2.75 -2.375q0.4375 -0.4375 0.8125 -1.03125z" fill-rule="nonzero"></path><path fill="#000000" d="m65.773865 296.4865q-3.7031212 3.1875 -7.640621 4.375l-0.671875 -1.78125q3.9375 -1.109375 7.062496 -3.78125q-2.6093712 -2.828125 -3.4999962 -6.53125l-3.5625 0l0 -1.40625l7.124996 0l0 -2.828125l1.640625 0q0.734375 0.15625 0.078125 0.59375l0 2.234375l7.1875 0l0 1.40625l-3.484375 0q-0.59375 3.484375 -3.109375 6.53125q2.59375 2.296875 6.890625 3.40625l-0.65625 1.796875q-3.796875 -0.96875 -7.359375 -4.015625zm-0.0625 -2.375q2.21875 -2.671875 2.734375 -5.34375l-5.781246 0q0.4375 2.515625 3.0468712 5.34375zm11.796875 -8.609375l6.234375 0l0 -1.484375l1.40625 0q0.59375 0.078125 0.078125 0.4375l0 1.046875l6.3125 0l0 1.1875l-2.96875 0l-0.671875 1.625l5.125 0l0 1.1875l-17.0 0l0 -1.1875l5.1875 0l-0.59375 -1.625l-3.109375 0l0 -1.1875zm8.75 2.8125l0.59375 -1.625l-4.59375 0l0.59375 1.625l3.40625 0zm3.640625 7.71875l-4.671875 0l0 1.046875l7.796875 0l0 1.40625l-7.796875 0l0 2.671875l-1.484375 0l0 -2.671875l-7.640625 0l0 -1.40625l7.640625 0l0 -1.046875l-2.296875 0l-2.375 0l0 -5.640625l10.828125 0l0 5.640625zm-1.484375 -3.265625l0 -1.1875l-7.859375 0l0 1.1875l7.859375 0zm0 2.078125l0 -1.1875l-7.859375 0l0 1.1875l7.859375 0z" fill-rule="nonzero"></path><path fill="#d9ead3" d="m836.5824 328.0c1.6958008 0 3.0705566 -1.3747253 3.0705566 -3.0705566l-3.0705566 0c0.8479004 0 1.5352783 -0.6873779 1.5352783 -1.5352783c0 -0.8479309 -0.6873779 -1.5352783 -1.5352783 -1.5352783l3.0705566 0l0 -86.78833l0 0c0 -1.695816 1.3746948 -3.0705566 3.0705566 -3.0705566l90.58386 0c1.6958618 0 3.0705566 1.3747406 3.0705566 3.0705566c0 1.6958313 -1.3746948 3.0705566 -3.0705566 3.0705566l-3.0705566 0l0 86.78833c0 1.6958313 -1.3746948 3.0705566 -3.0705566 3.0705566zm9.21167 -92.92944l0 0c0 1.6958313 -1.3747559 3.0705566 -3.0705566 3.0705566c-0.8479614 0 -1.5352783 -0.6873627 -1.5352783 -1.5352783c0 -0.8479004 0.6873169 -1.5352783 1.5352783 -1.5352783z" fill-rule="nonzero"></path><path fill="#adbba8" d="m845.79407 235.07056l0 0c0 1.6958313 -1.3747559 3.0705566 -3.0705566 3.0705566c-0.8479614 0 -1.5352783 -0.6873627 -1.5352783 -1.5352783c0 -0.8479004 0.6873169 -1.5352783 1.5352783 -1.5352783zm-6.1411133 89.85889c0 1.6958313 -1.3747559 3.0705566 -3.0705566 3.0705566c-1.6958618 0 -3.0705566 -1.3747253 -3.0705566 -3.0705566c0 -1.6958313 1.3746948 -3.0705566 3.0705566 -3.0705566l0 0c0.8479004 0 1.5352783 0.6873474 1.5352783 1.5352783c0 0.8479004 -0.6873779 1.5352783 -1.5352783 1.5352783z" fill-rule="nonzero"></path><path fill="#000000" fill-opacity="0.0" d="m839.65295 321.8589l0 -86.78833l0 0c0 -1.695816 1.3746948 -3.0705566 3.0705566 -3.0705566l90.58386 0c1.6958618 0 3.0705566 1.3747406 3.0705566 3.0705566c0 1.6958313 -1.3746948 3.0705566 -3.0705566 3.0705566l-3.0705566 0l0 86.78833c0 1.6958313 -1.3746948 3.0705566 -3.0705566 3.0705566l-90.58386 0c-1.6958618 0 -3.0705566 -1.3747253 -3.0705566 -3.0705566c0 -1.6958313 1.3746948 -3.0705566 3.0705566 -3.0705566zm3.0705566 -89.85889l0 0c1.6958008 0 3.0705566 1.3747406 3.0705566 3.0705566c0 1.6958313 -1.3747559 3.0705566 -3.0705566 3.0705566c-0.8479614 0 -1.5352783 -0.6873627 -1.5352783 -1.5352783c0 -0.8479004 0.6873169 -1.5352783 1.5352783 -1.5352783l3.0705566 0m84.44275 3.0705566l-87.513306 0m-6.1411133 83.71777l0 0c0.8479004 0 1.5352783 0.6873474 1.5352783 1.5352783c0 0.8479004 -0.6873779 1.5352783 -1.5352783 1.5352783l3.0705566 0m-3.0705566 3.0705566c1.6958008 0 3.0705566 -1.3747253 3.0705566 -3.0705566l0 -3.0705566" fill-rule="nonzero"></path><path stroke="#000000" stroke-width="1.0" stroke-linejoin="round" stroke-linecap="butt" d="m839.65295 321.8589l0 -86.78833l0 0c0 -1.695816 1.3746948 -3.0705566 3.0705566 -3.0705566l90.58386 0c1.6958618 0 3.0705566 1.3747406 3.0705566 3.0705566c0 1.6958313 -1.3746948 3.0705566 -3.0705566 3.0705566l-3.0705566 0l0 86.78833c0 1.6958313 -1.3746948 3.0705566 -3.0705566 3.0705566l-90.58386 0c-1.6958618 0 -3.0705566 -1.3747253 -3.0705566 -3.0705566c0 -1.6958313 1.3746948 -3.0705566 3.0705566 -3.0705566zm3.0705566 -89.85889l0 0c1.6958008 0 3.0705566 1.3747406 3.0705566 3.0705566c0 1.6958313 -1.3747559 3.0705566 -3.0705566 3.0705566c-0.8479614 0 -1.5352783 -0.6873627 -1.5352783 -1.5352783c0 -0.8479004 0.6873169 -1.5352783 1.5352783 -1.5352783l3.0705566 0m84.44275 3.0705566l-87.513306 0m-6.1411133 83.71777l0 0c0.8479004 0 1.5352783 0.6873474 1.5352783 1.5352783c0 0.8479004 -0.6873779 1.5352783 -1.5352783 1.5352783l3.0705566 0m-3.0705566 3.0705566c1.6958008 0 3.0705566 -1.3747253 3.0705566 -3.0705566l0 -3.0705566" fill-rule="nonzero"></path><path fill="#000000" d="m876.42926 262.83026q-0.359375 0.8125 -0.59375 1.671875q-0.21875 0.859375 -0.59375 2.34375l5.9375 0q0.75 0 2.234375 -0.078125l0 1.40625q-1.484375 -0.078125 -2.234375 -0.078125l-6.234375 0q-0.4375 1.125 -0.953125 2.234375l7.859375 0q-1.40625 3.40625 -3.9375 5.71875q2.015625 1.40625 5.875 1.859375q-0.53125 0.59375 -0.890625 1.484375q-1.484375 -0.296875 -3.046875 -0.859375q-1.5625 -0.5625 -3.046875 -1.59375q-1.1875 0.734375 -2.890625 1.4375q-1.703125 0.71875 -3.484375 1.15625q-0.15625 -0.734375 -0.75 -1.40625q1.640625 -0.21875 3.265625 -0.78125q1.640625 -0.5625 2.890625 -1.375q-1.25 -1.265625 -2.8125 -3.640625q-0.8125 1.34375 -2.078125 2.609375q-1.265625 1.25 -2.75 2.296875q-0.296875 -0.53125 -1.1875 -1.125q1.109375 -0.59375 2.1875 -1.546875q1.078125 -0.96875 2.265625 -2.5625q1.1875 -1.59375 2.0 -3.90625q-1.921875 0 -2.96875 0.078125q-1.03125 0.078125 -1.546875 0.296875q-0.234375 -0.671875 -0.59375 -1.40625q0.734375 -0.15625 1.0625 -1.109375q0.34375 -0.96875 0.71875 -2.96875q0.59375 0.296875 1.625 0.59375q-0.375 0.734375 -0.671875 1.515625q-0.296875 0.78125 -0.65625 1.75l3.40625 0q0.59375 -2.375 0.890625 -4.53125q0.8125 0.4375 1.703125 0.515625zm-2.375 8.6875q1.046875 1.859375 2.90625 3.703125q1.625 -1.328125 2.890625 -3.703125l-5.796875 0zm5.125 -9.125q1.265625 1.40625 2.53125 2.890625q-0.53125 0.296875 -1.265625 0.96875q-1.1875 -1.71875 -2.296875 -2.90625q0.515625 -0.359375 1.03125 -0.953125z" fill-rule="nonzero"></path><path fill="#000000" d="m891.97614 264.76776q0.515625 -1.34375 0.96875 -2.90625l1.625 0.453125q0.296875 0.296875 -0.21875 0.375q-0.453125 1.109375 -0.8125 2.078125l9.265625 0l0 1.40625l-9.859375 0q-1.1875 2.296875 -1.859375 3.046875l3.34375 0l0 -2.375l1.40625 0q0.59375 0.0625 0.078125 0.4375l0 1.9375l4.96875 0l0 7.1875q0 1.203125 -1.1875 1.203125l-1.40625 0l-0.234375 -1.421875l1.046875 0q0.296875 0 0.296875 -0.296875l0 -5.265625l-3.484375 0l0 8.46875l-1.484375 0l0 -8.46875l-3.34375 0l0 6.90625l-1.484375 0l0 -6.390625q-1.34375 1.40625 -2.828125 2.375l-1.03125 -1.40625q3.484375 -2.15625 5.5625 -5.9375l-4.890625 0l0 -1.40625l5.5625 0z" fill-rule="nonzero"></path><path fill="#000000" d="m875.66364 296.4865q-3.703125 3.1875 -7.640625 4.375l-0.671875 -1.78125q3.9375 -1.109375 7.0625 -3.78125q-2.609375 -2.828125 -3.5 -6.53125l-3.5625 0l0 -1.40625l7.125 0l0 -2.828125l1.640625 0q0.734375 0.15625 0.078125 0.59375l0 2.234375l7.1875 0l0 1.40625l-3.484375 0q-0.59375 3.484375 -3.109375 6.53125q2.59375 2.296875 6.890625 3.40625l-0.65625 1.796875q-3.796875 -0.96875 -7.359375 -4.015625zm-0.0625 -2.375q2.21875 -2.671875 2.734375 -5.34375l-5.78125 0q0.4375 2.515625 3.046875 5.34375zm11.796875 -8.609375l6.234375 0l0 -1.484375l1.40625 0q0.59375 0.078125 0.078125 0.4375l0 1.046875l6.3125 0l0 1.1875l-2.96875 0l-0.671875 1.625l5.125 0l0 1.1875l-17.0 0l0 -1.1875l5.1875 0l-0.59375 -1.625l-3.109375 0l0 -1.1875zm8.75 2.8125l0.59375 -1.625l-4.59375 0l0.59375 1.625l3.40625 0zm3.640625 7.71875l-4.671875 0l0 1.046875l7.796875 0l0 1.40625l-7.796875 0l0 2.671875l-1.484375 0l0 -2.671875l-7.640625 0l0 -1.40625l7.640625 0l0 -1.046875l-2.296875 0l-2.375 0l0 -5.640625l10.828125 0l0 5.640625zm-1.484375 -3.265625l0 -1.1875l-7.859375 0l0 1.1875l7.859375 0zm0 2.078125l0 -1.1875l-7.859375 0l0 1.1875l7.859375 0z" fill-rule="nonzero"></path><path fill="#d9edf7" d="m441.62204 496.0l76.75589 0l0 32.002563l-15.997406 15.997437l-60.758484 0z" fill-rule="nonzero"></path><path fill="#adbdc5" d="m502.38052 544.0l3.199463 -12.797974l12.797943 -3.199463z" fill-rule="nonzero"></path><path fill="#000000" fill-opacity="0.0" d="m502.38052 544.0l3.199463 -12.797974l12.797943 -3.199463l-15.997406 15.997437l-60.758484 0l0 -48.0l76.75589 0l0 32.002563" fill-rule="nonzero"></path><path stroke="#000000" stroke-width="1.0" stroke-linejoin="round" stroke-linecap="butt" d="m502.38052 544.0l3.199463 -12.797974l12.797943 -3.199463l-15.997406 15.997437l-60.758484 0l0 -48.0l76.75589 0l0 32.002563" fill-rule="nonzero"></path><path fill="#000000" d="m459.5625 516.54626q1.40625 0.078125 2.96875 0.078125l5.046875 0l0 -4.453125l-3.40625 0q-1.78125 0 -3.125 0.0625l0 -1.40625q1.34375 0.078125 3.125 0.078125l3.40625 0l0 -4.375l-4.53125 0q-1.40625 0 -2.890625 0.0625l0 -1.40625q1.34375 0.078125 2.75 0.078125l6.3125 0q-0.078125 1.5625 -0.078125 2.453125l0 8.75q0 1.859375 0.078125 3.34375l-1.640625 0l0 -1.9375l-5.046875 0q-1.5625 0 -2.96875 0.078125l0 -1.40625zm-6.671875 2.828125q2.296875 -1.421875 3.328125 -3.34375q1.046875 -1.9375 1.265625 -4.125q0.21875 -2.1875 0.1875 -4.375q-0.03125 -2.1875 -0.109375 -3.828125l1.625 0q-0.0625 1.1875 -0.0625 3.484375q0 2.3125 -0.15625 4.5q-0.140625 2.1875 -1.15625 4.421875q-1.0 2.21875 -3.59375 4.453125q-0.515625 -0.671875 -1.328125 -1.1875zm0.4375 -4.09375q0.078125 -1.265625 0.078125 -2.453125l0 -4.890625q0 -1.265625 -0.078125 -2.296875l1.640625 0q-0.078125 1.109375 -0.078125 2.296875l0 4.890625q0 1.1875 0.078125 2.453125l-1.640625 0z" fill-rule="nonzero"></path><path fill="#000000" d="m487.79688 505.78064q-0.453125 1.5625 -1.640625 3.71875l-1.40625 -0.375q1.109375 -2.375 1.5625 -4.375l1.5625 0.515625q0.8125 0.296875 -0.078125 0.515625zm-9.796875 2.828125l-2.234375 0l0 2.296875q1.484375 0.96875 2.375 2.21875l-0.890625 1.34375q-0.65625 -1.1875 -1.484375 -1.9375l0 8.03125l-1.484375 0l0 -8.09375q-0.953125 2.375 -2.140625 3.703125l-0.75 -1.328125q1.9375 -2.453125 2.828125 -6.234375l-2.53125 0l0 -1.421875l2.59375 0l0 -3.5625l1.421875 0q0.59375 0.078125 0.0625 0.453125l0 3.109375l2.234375 0l0 1.421875zm0.21875 1.625l4.015625 0l0 -6.234375l1.40625 0q0.59375 0.078125 0.078125 0.453125l0 5.78125l3.921875 0l0 9.734375l-1.484375 0l0 -0.671875l-8.015625 0l0 -1.421875l8.015625 0l0 -2.4375l-7.484375 0l0 -1.421875l7.484375 0l0 -2.375l-7.9375 0l0 -1.40625zm1.1875 -5.125q0.8125 1.640625 1.40625 3.859375l-1.484375 0.53125q-0.4375 -2.078125 -1.328125 -3.859375l1.40625 -0.53125z" fill-rule="nonzero"></path><path fill="#000000" d="m496.03125 504.29626q-0.375 0.375 -0.59375 1.015625q-0.21875 0.625 -0.515625 1.578125l4.75 0q-0.15625 1.34375 -0.3125 2.28125q-0.140625 0.921875 -0.40625 2.078125q-0.25 1.140625 -0.703125 2.4375q-0.4375 1.296875 -0.953125 2.265625q0.515625 0.59375 1.515625 1.265625q1.0 0.65625 2.484375 1.078125q1.484375 0.40625 3.15625 0.515625q1.671875 0.109375 3.375 0.03125q-0.734375 0.890625 -0.890625 1.71875q-2.296875 0 -4.046875 -0.34375q-1.734375 -0.328125 -2.734375 -0.671875q-1.0 -0.328125 -2.015625 -1.03125q-1.0 -0.703125 -1.734375 -1.53125q-1.109375 1.125 -2.15625 1.9375q-1.03125 0.8125 -2.96875 1.859375q-0.515625 -0.8125 -1.109375 -1.265625q1.625 -0.59375 3.140625 -1.625q1.53125 -1.046875 2.203125 -2.015625q-0.890625 -1.1875 -1.421875 -2.375q-0.515625 -1.1875 -0.953125 -2.453125q-1.046875 2.015625 -1.5625 2.75q-0.59375 -0.59375 -1.328125 -0.8125q0.65625 -0.75 1.390625 -2.0q0.75 -1.265625 1.234375 -2.453125q0.484375 -1.1875 0.8125 -2.515625q0.34375 -1.34375 0.484375 -2.390625q0.828125 0.453125 1.859375 0.671875zm6.828125 -0.515625q-0.078125 1.109375 -0.078125 2.453125l0 7.421875q0 1.546875 0.078125 3.921875l-1.5625 0q0.078125 -2.375 0.078125 -3.921875l0 -7.421875q0 -1.34375 -0.078125 -2.453125l1.5625 0zm-8.828125 5.640625q0.296875 1.265625 0.890625 2.640625q0.59375 1.359375 1.484375 2.484375q0.59375 -1.265625 1.0 -2.859375q0.40625 -1.59375 0.625 -3.53125l-3.484375 0q-0.375 0.8125 -0.515625 1.265625zm10.234375 -1.40625q0.828125 0.953125 1.78125 2.0q0.96875 1.03125 1.71875 1.921875q-0.53125 0.296875 -1.34375 1.125q-0.59375 -0.890625 -1.40625 -1.96875q-0.8125 -1.078125 -1.859375 -2.1875q0.59375 -0.375 1.109375 -0.890625z" fill-rule="nonzero"></path><path fill="#ffffff" d="m206.48819 176.0l76.75589 0l0 48.0l-76.75589 0z" fill-rule="nonzero"></path><path stroke="#000000" stroke-width="1.0" stroke-linejoin="round" stroke-linecap="butt" d="m206.48819 176.0l76.75589 0l0 48.0l-76.75589 0z" fill-rule="nonzero"></path><path fill="#000000" d="m224.08488 207.21687q3.046875 -1.640625 3.046875 -5.5625l0 -8.546875l1.5625 0.296875l4.0 -1.25l1.109375 1.484375q0.15625 0.4375 -0.515625 0.140625l-4.671875 0.890625l0 3.1875l5.859375 0l0 1.421875l-2.21875 0l0 9.28125l-1.484375 0l0 -9.28125l-2.15625 0l0 2.8125q0 4.375 -3.71875 6.53125l-0.8125 -1.40625zm-1.40625 1.40625l-1.484375 0l0 -4.453125q-1.1875 1.9375 -2.59375 3.046875l-1.125 -1.34375q2.078125 -1.484375 3.5 -3.703125l-3.125 0l0 -1.40625l3.34375 0l0 -1.640625l-3.78125 0l0 -1.40625l5.1875 0l0.8125 -2.671875l-5.484375 0l0 -1.40625l3.265625 0l0 -2.078125l1.40625 0q0.59375 0.0625 0.078125 0.4375l0 1.640625l3.265625 0l0 1.40625l-0.96875 0l-1.03125 2.671875l2.375 0l0 1.40625l-3.640625 0l0 1.640625l3.265625 0l0 1.40625l-3.265625 0l0 0.671875q1.03125 0.296875 2.890625 1.546875l-0.890625 1.484375q-1.03125 -1.03125 -2.0 -1.625l0 4.375zm-2.96875 -11.0625q-0.296875 -1.03125 -0.8125 -2.0l1.40625 -0.4375q0.59375 0.953125 0.890625 2.0l-1.484375 0.4375zm21.890625 0.453125q2.453125 -2.296875 3.78125 -6.6875l1.484375 0.453125q0.375 0.296875 -0.140625 0.375q-0.59375 1.484375 -1.1875 2.734375l2.21875 0q0.828125 -1.703125 1.265625 -3.03125l1.40625 0.515625q0.296875 0.296875 -0.21875 0.375q-0.515625 1.1875 -1.03125 2.140625l3.78125 0l0 1.421875l-3.78125 0l0 2.296875l3.03125 0l0 1.40625l-3.03125 0l0 2.375l3.03125 0l0 1.40625l-3.03125 0l0 2.75l4.21875 0l0 1.421875l-8.15625 0l0 0.65625l-1.484375 0l0 -10.765625q-0.515625 0.75 -1.109375 1.34375l-1.046875 -1.1875zm-3.703125 10.46875l-0.296875 -1.40625l1.25 0q0.296875 0 0.296875 -0.3125l0 -4.59375l-1.921875 0.4375q-0.078125 0.53125 -0.375 0.234375l-0.296875 -1.71875l2.59375 -0.515625l0 -3.9375l-2.296875 0l0 -1.40625l2.296875 0l0 -3.78125l1.421875 0q0.59375 0.078125 0.0625 0.4375l0 3.34375l1.9375 0l0 1.40625l-1.9375 0l0 3.640625l1.9375 -0.515625l0.21875 1.328125l-2.15625 0.671875l0 5.5q0 1.1875 -1.1875 1.1875l-1.546875 0zm7.34375 -1.9375l2.453125 0l0 -2.75l-2.453125 0l0 2.75zm0 -4.15625l2.453125 0l0 -2.375l-2.453125 0l0 2.375zm0 -3.78125l2.453125 0l0 -2.296875l-2.453125 0l0 2.296875zm16.843765 -3.34375l1.046875 0.15625q1.03125 0.21875 0.296875 0.515625l-0.53125 0.734375l8.609375 0l0 1.421875l-9.5 0q-0.953125 1.546875 -1.921875 2.59375l0 7.875l-1.484375 0l0 -6.46875q-0.890625 0.890625 -2.8281403 2.0l-0.4375 -1.546875q2.6718903 -1.421875 4.9687653 -4.453125l-4.0 0l0 -1.421875l4.96875 0l0.515625 -0.8125l-1.484375 0l0 -1.40625l-4.5312653 0l0 -1.40625l4.5312653 0l0 -1.5625l1.40625 0q0.59375 0.078125 0.078125 0.4375l0 1.125l3.9375 0l0 -1.5625l1.40625 0q0.59375 0.078125 0.078125 0.4375l0 1.125l4.671875 0l0 1.40625l-4.671875 0l0 1.328125l-1.484375 0l0 -1.328125l-3.9375 0l0 1.265625l0.296875 -0.453125zm7.28125 3.78125l1.40625 0.96875q0.671875 0.453125 -0.453125 0.59375l-3.1875 2.0l0 0.75l5.203125 0l0 1.40625l-5.203125 0l0 2.453125q0 1.1875 -0.96875 1.1875l-1.40625 0l-0.296875 -1.40625l0.890625 0q0.296875 0 0.296875 -0.296875l0 -1.9375l-5.125 0l0 -1.40625l5.125 0l0 -1.703125l0.890625 0l1.265625 -0.96875l-5.9375 0l0 -1.40625l7.265625 0l0.234375 -0.234375z" fill-rule="nonzero"></path><path fill="#f2dede" d="m363.24408 256.0l76.75592 0l0 48.0l-76.75592 0z" fill-rule="nonzero"></path><path stroke="#000000" stroke-width="1.0" stroke-linejoin="round" stroke-linecap="butt" d="m363.24408 256.0l76.75592 0l0 48.0l-76.75592 0z" fill-rule="nonzero"></path><path fill="#000000" d="m381.30954 274.59186q-0.296875 0.828125 -0.8125 1.640625l-0.96875 -0.515625q0.453125 -0.75 0.890625 -1.9375l1.109375 0.453125q0.296875 0.296875 -0.21875 0.359375zm-6.609375 -1.703125q4.609375 -0.375 6.53125 -0.890625l0.453125 1.1875q0.078125 0.515625 -0.453125 0.21875q-1.03125 0.15625 -2.296875 0.296875l0 2.90625l3.046875 0l0 1.1875l-3.046875 0l0 0.140625q2.296875 0.96875 3.5625 2.078125l-0.734375 1.109375q-1.265625 -1.109375 -2.828125 -2.078125l0 1.78125l-1.265625 0l0 -1.546875q-1.25 1.546875 -2.890625 2.4375l-0.734375 -1.25q1.921875 -0.828125 3.484375 -2.671875l-2.890625 0l0 -1.1875l3.03125 0l0 -2.75q-1.25 0.140625 -2.671875 0.21875l-0.296875 -1.1875zm8.46875 11.578125q-0.078125 0.515625 -0.375 0.21875l-0.734375 -1.40625q1.546875 -0.96875 3.03125 -2.296875l0 -7.125l-2.671875 0l0 -1.1875l3.9375 0l0 14.546875q0 1.109375 -0.8125 1.109375l-1.484375 0l-0.375 -1.1875l1.109375 0q0.296875 0 0.296875 -0.296875l0 -4.234375q-0.890625 0.96875 -1.921875 1.859375zm4.671875 -0.078125q-0.078125 0.53125 -0.375 0.234375l-0.65625 -1.34375q1.484375 -1.1875 2.8125 -2.59375l0 -6.828125l-2.59375 0l0 -1.1875l3.859375 0l0 14.546875q0 1.109375 -0.8125 1.109375l-1.421875 0l-0.359375 -1.1875l1.03125 0q0.296875 0 0.296875 -0.296875l0 -4.453125q-0.890625 1.1875 -1.78125 2.0zm-0.21875 -4.59375q-0.296875 -2.453125 -0.75 -3.859375l1.265625 -0.375q0.671875 1.703125 0.890625 3.9375l-1.40625 0.296875zm-7.421875 8.390625l0 -0.515625l-3.71875 0l0 1.03125l-1.25 0l0 -7.125l6.234375 0l0 6.609375l-1.265625 0zm-3.71875 -5.71875l0 1.703125l1.1875 0l0 -1.703125l-1.1875 0zm0 4.296875l1.1875 0l0 -1.703125l-1.1875 0l0 1.703125zm2.453125 -1.703125l0 1.703125l1.265625 0l0 -1.703125l-1.265625 0zm0 -2.59375l0 1.703125l1.265625 0l0 -1.703125l-1.265625 0zm-2.890625 -6.015625q-0.375 -0.96875 -0.890625 -1.703125l1.03125 -0.515625q0.671875 0.890625 0.96875 1.703125l-1.109375 0.515625zm7.5625 -0.890625q0.671875 1.703125 0.890625 3.9375l-1.40625 0.375q-0.296875 -2.609375 -0.734375 -3.9375l1.25 -0.375z" fill-rule="nonzero"></path><path fill="#000000" d="m399.3408 273.26373l0 -1.34375q1.34375 0.078125 2.828125 0.078125l6.90625 0q-0.96875 1.640625 -1.671875 2.5625q-0.703125 0.921875 -1.890625 2.109375q1.84375 0.890625 5.109375 0.96875q-0.515625 0.890625 -0.65625 1.703125q-3.5 -0.4375 -5.640625 -1.84375q-1.265625 0.734375 -2.421875 1.21875q-1.140625 0.484375 -3.0 0.921875q-0.296875 -0.8125 -0.96875 -1.625q1.5625 -0.078125 2.78125 -0.375q1.234375 -0.296875 2.265625 -0.890625q-1.78125 -1.703125 -2.453125 -3.5625l-1.1875 0.078125zm4.453125 7.71875q0 -0.890625 -0.0625 -1.78125l1.546875 0q-0.0625 0.96875 -0.0625 1.78125l1.1875 0q1.328125 0 2.4375 -0.078125l0 1.34375q-1.1875 -0.078125 -2.375 -0.078125l-1.25 0l0 2.078125l1.921875 0q1.640625 0 2.890625 -0.078125l0 1.484375q-1.25 -0.140625 -2.8125 -0.140625l-2.0 0l0 1.40625q0 1.046875 0.0625 2.078125l-1.546875 0q0.0625 -1.03125 0.0625 -2.078125l0 -1.40625l-1.328125 0q-1.640625 0 -2.671875 0.140625l0 -1.484375q1.03125 0.078125 2.671875 0.078125l1.328125 0l0 -2.078125l-1.25 0q-1.1875 0 -2.234375 0.078125l0 -1.34375q1.046875 0.078125 2.234375 0.078125l1.25 0zm-6.96875 -4.234375q-0.078125 1.640625 -0.078125 3.34375l0 4.375q0.96875 -0.96875 1.859375 -2.21875q0.296875 0.734375 0.8125 1.484375q-1.40625 1.484375 -2.34375 2.484375q-0.921875 1.0 -1.21875 1.515625q-0.8125 -0.734375 -1.1875 -1.1875q0.671875 -0.59375 0.671875 -1.484375l0 -7.203125l-0.453125 0q-0.65625 0 -1.84375 0.15625l0 -1.34375q1.03125 0.078125 1.625 0.078125l2.15625 0zm7.5 -0.8125q1.78125 -1.859375 2.21875 -2.828125l-4.53125 0q0.96875 2.078125 2.3125 2.828125zm-7.796875 -0.75q-1.1875 -2.140625 -2.0 -3.03125q0.4375 -0.375 1.1875 -0.890625q1.40625 1.78125 2.21875 2.890625q-0.890625 0.4375 -1.40625 1.03125z" fill-rule="nonzero"></path><path fill="#000000" d="m419.63766 281.4981l0 -4.828125l-4.828125 0l0 4.828125l4.828125 0zm0 -9.640625l1.40625 0q0.59375 0.0625 0.078125 0.4375l0 2.96875l6.453125 0l0 8.171875l-1.484375 0l0 -0.53125l-4.96875 0l0 5.578125l-1.484375 0l0 -5.578125l-4.828125 0l0 0.96875l-1.484375 0l0 -8.609375l6.3125 0l0 -3.40625zm6.453125 9.640625l0 -4.828125l-4.96875 0l0 4.828125l4.96875 0z" fill-rule="nonzero"></path><path fill="#ffffff" d="m206.48819 336.0l76.75589 0l0 48.0l-76.75589 0z" fill-rule="nonzero"></path><path stroke="#000000" stroke-width="1.0" stroke-linejoin="round" stroke-linecap="butt" d="m206.48819 336.0l76.75589 0l0 48.0l-76.75589 0z" fill-rule="nonzero"></path><path fill="#000000" d="m224.08488 367.21686q3.046875 -1.640625 3.046875 -5.5625l0 -8.546875l1.5625 0.296875l4.0 -1.25l1.109375 1.484375q0.15625 0.4375 -0.515625 0.140625l-4.671875 0.890625l0 3.1875l5.859375 0l0 1.421875l-2.21875 0l0 9.28125l-1.484375 0l0 -9.28125l-2.15625 0l0 2.8125q0 4.375 -3.71875 6.53125l-0.8125 -1.40625zm-1.40625 1.40625l-1.484375 0l0 -4.453125q-1.1875 1.9375 -2.59375 3.046875l-1.125 -1.34375q2.078125 -1.484375 3.5 -3.703125l-3.125 0l0 -1.40625l3.34375 0l0 -1.640625l-3.78125 0l0 -1.40625l5.1875 0l0.8125 -2.671875l-5.484375 0l0 -1.40625l3.265625 0l0 -2.078125l1.40625 0q0.59375 0.0625 0.078125 0.4375l0 1.640625l3.265625 0l0 1.40625l-0.96875 0l-1.03125 2.671875l2.375 0l0 1.40625l-3.640625 0l0 1.640625l3.265625 0l0 1.40625l-3.265625 0l0 0.671875q1.03125 0.296875 2.890625 1.546875l-0.890625 1.484375q-1.03125 -1.03125 -2.0 -1.625l0 4.375zm-2.96875 -11.0625q-0.296875 -1.03125 -0.8125 -2.0l1.40625 -0.4375q0.59375 0.953125 0.890625 2.0l-1.484375 0.4375zm25.75 9.28125q0.296875 0 0.296875 -0.296875l0 -4.296875l-2.75 0l0 0.515625l-1.484375 0l0 -7.203125l3.5 0l0.296875 -1.921875l-5.875 0l0 7.046875q0 4.828125 -1.78125 7.578125l-1.25 -1.265625q1.546875 -2.375 1.546875 -6.3125l0 -8.46875l14.84375 0l0 1.421875l-5.703125 0l-0.53125 1.921875l4.609375 0l0 7.125l-1.484375 0l0 -0.4375l-2.453125 0l0 5.046875q0 1.1875 -1.1875 1.1875l-1.484375 0l-0.375 -1.640625l1.265625 0zm6.015625 0.59375q-1.484375 -2.078125 -2.96875 -3.40625l1.109375 -1.046875q1.9375 1.40625 3.265625 3.265625l-1.40625 1.1875zm-7.34375 -3.40625q0.59375 0.515625 -0.15625 0.359375q-1.5625 2.234375 -3.265625 3.421875l-1.03125 -1.34375q1.78125 -1.328125 3.109375 -3.40625l1.34375 0.96875zm-1.125 -2.96875l6.6875 0l0 -1.640625l-6.6875 0l0 1.640625zm0 -2.828125l6.6875 0l0 -1.484375l-6.6875 0l0 1.484375zm21.07814 5.71875q-3.703125 3.1875 -7.640625 4.375l-0.67189026 -1.78125q3.9375153 -1.109375 7.0625153 -3.78125q-2.609375 -2.828125 -3.5 -6.53125l-3.5625153 0l0 -1.40625l7.1250153 0l0 -2.828125l1.640625 0q0.734375 0.15625 0.078125 0.59375l0 2.234375l7.1875 0l0 1.40625l-3.484375 0q-0.59375 3.484375 -3.109375 6.53125q2.59375 2.296875 6.890625 3.40625l-0.65625 1.796875q-3.796875 -0.96875 -7.359375 -4.015625zm-0.0625 -2.375q2.21875 -2.671875 2.734375 -5.34375l-5.78125 0q0.4375 2.515625 3.046875 5.34375z" fill-rule="nonzero"></path><path fill="#fcf8e3" d="m520.0 256.0l76.75592 0l0 48.0l-76.75592 0z" fill-rule="nonzero"></path><path stroke="#000000" stroke-width="1.0" stroke-linejoin="round" stroke-linecap="butt" d="m520.0 256.0l76.75592 0l0 48.0l-76.75592 0z" fill-rule="nonzero"></path><path fill="#000000" d="m534.2842 287.66998q-1.34375 0 -1.34375 -1.265625l0 -10.6875l1.640625 0q0.734375 0.140625 0.078125 0.59375l0 1.921875l8.828125 0l0 -3.9375l-11.0625 0l0 -1.625l12.765625 0l0 7.71875l-1.703125 0l0 -0.515625l-8.828125 0l0 5.40625q0 0.75 0.734375 0.75l9.359375 0q0.734375 0 0.890625 -0.890625l0.296875 -1.703125l1.703125 0.59375l-0.59375 2.4375q-0.296875 1.203125 -1.703125 1.203125l-11.0625 0zm22.78125 -13.078125q-0.296875 0.828125 -0.8125 1.640625l-0.96875 -0.515625q0.453125 -0.75 0.890625 -1.9375l1.109375 0.453125q0.296875 0.296875 -0.21875 0.359375zm-6.609375 -1.703125q4.609375 -0.375 6.53125 -0.890625l0.453125 1.1875q0.078125 0.515625 -0.453125 0.21875q-1.03125 0.15625 -2.296875 0.296875l0 2.90625l3.046875 0l0 1.1875l-3.046875 0l0 0.140625q2.296875 0.96875 3.5625 2.078125l-0.734375 1.109375q-1.265625 -1.109375 -2.828125 -2.078125l0 1.78125l-1.265625 0l0 -1.546875q-1.25 1.546875 -2.890625 2.4375l-0.734375 -1.25q1.921875 -0.828125 3.484375 -2.671875l-2.890625 0l0 -1.1875l3.03125 0l0 -2.75q-1.25 0.140625 -2.671875 0.21875l-0.296875 -1.1875zm8.46875 11.578125q-0.078125 0.515625 -0.375 0.21875l-0.734375 -1.40625q1.546875 -0.96875 3.03125 -2.296875l0 -7.125l-2.671875 0l0 -1.1875l3.9375 0l0 14.546875q0 1.109375 -0.8125 1.109375l-1.484375 0l-0.375 -1.1875l1.109375 0q0.296875 0 0.296875 -0.296875l0 -4.234375q-0.890625 0.96875 -1.921875 1.859375zm4.671875 -0.078125q-0.078125 0.53125 -0.375 0.234375l-0.65625 -1.34375q1.484375 -1.1875 2.8125 -2.59375l0 -6.828125l-2.59375 0l0 -1.1875l3.859375 0l0 14.546875q0 1.109375 -0.8125 1.109375l-1.421875 0l-0.359375 -1.1875l1.03125 0q0.296875 0 0.296875 -0.296875l0 -4.453125q-0.890625 1.1875 -1.78125 2.0zm-0.21875 -4.59375q-0.296875 -2.453125 -0.75 -3.859375l1.265625 -0.375q0.671875 1.703125 0.890625 3.9375l-1.40625 0.296875zm-7.421875 8.390625l0 -0.515625l-3.71875 0l0 1.03125l-1.25 0l0 -7.125l6.234375 0l0 6.609375l-1.265625 0zm-3.71875 -5.71875l0 1.703125l1.1875 0l0 -1.703125l-1.1875 0zm0 4.296875l1.1875 0l0 -1.703125l-1.1875 0l0 1.703125zm2.453125 -1.703125l0 1.703125l1.265625 0l0 -1.703125l-1.265625 0zm0 -2.59375l0 1.703125l1.265625 0l0 -1.703125l-1.265625 0zm-2.890625 -6.015625q-0.375 -0.96875 -0.890625 -1.703125l1.03125 -0.515625q0.671875 0.890625 0.96875 1.703125l-1.109375 0.515625zm7.5625 -0.890625q0.671875 1.703125 0.890625 3.9375l-1.40625 0.375q-0.296875 -2.609375 -0.734375 -3.9375l1.25 -0.375z" fill-rule="nonzero"></path><path fill="#000000" d="m575.0967 273.26373l0 -1.34375q1.34375 0.078125 2.828125 0.078125l6.90625 0q-0.96875 1.640625 -1.671875 2.5625q-0.703125 0.921875 -1.890625 2.109375q1.84375 0.890625 5.109375 0.96875q-0.515625 0.890625 -0.65625 1.703125q-3.5 -0.4375 -5.640625 -1.84375q-1.265625 0.734375 -2.421875 1.21875q-1.140625 0.484375 -3.0 0.921875q-0.296875 -0.8125 -0.96875 -1.625q1.5625 -0.078125 2.78125 -0.375q1.234375 -0.296875 2.265625 -0.890625q-1.78125 -1.703125 -2.453125 -3.5625l-1.1875 0.078125zm4.453125 7.71875q0 -0.890625 -0.0625 -1.78125l1.546875 0q-0.0625 0.96875 -0.0625 1.78125l1.1875 0q1.328125 0 2.4375 -0.078125l0 1.34375q-1.1875 -0.078125 -2.375 -0.078125l-1.25 0l0 2.078125l1.921875 0q1.640625 0 2.890625 -0.078125l0 1.484375q-1.25 -0.140625 -2.8125 -0.140625l-2.0 0l0 1.40625q0 1.046875 0.0625 2.078125l-1.546875 0q0.0625 -1.03125 0.0625 -2.078125l0 -1.40625l-1.328125 0q-1.640625 0 -2.671875 0.140625l0 -1.484375q1.03125 0.078125 2.671875 0.078125l1.328125 0l0 -2.078125l-1.25 0q-1.1875 0 -2.234375 0.078125l0 -1.34375q1.046875 0.078125 2.234375 0.078125l1.25 0zm-6.96875 -4.234375q-0.078125 1.640625 -0.078125 3.34375l0 4.375q0.96875 -0.96875 1.859375 -2.21875q0.296875 0.734375 0.8125 1.484375q-1.40625 1.484375 -2.34375 2.484375q-0.921875 1.0 -1.21875 1.515625q-0.8125 -0.734375 -1.1875 -1.1875q0.671875 -0.59375 0.671875 -1.484375l0 -7.203125l-0.453125 0q-0.65625 0 -1.84375 0.15625l0 -1.34375q1.03125 0.078125 1.625 0.078125l2.15625 0zm7.5 -0.8125q1.78125 -1.859375 2.21875 -2.828125l-4.53125 0q0.96875 2.078125 2.3125 2.828125zm-7.796875 -0.75q-1.1875 -2.140625 -2.0 -3.03125q0.4375 -0.375 1.1875 -0.890625q1.40625 1.78125 2.21875 2.890625q-0.890625 0.4375 -1.40625 1.03125z" fill-rule="nonzero"></path><path fill="#dff0d8" d="m676.7559 256.0l76.75592 0l0 48.0l-76.75592 0z" fill-rule="nonzero"></path><path stroke="#000000" stroke-width="1.0" stroke-linejoin="round" stroke-linecap="butt" d="m676.7559 256.0l76.75592 0l0 48.0l-76.75592 0z" fill-rule="nonzero"></path><path fill="#000000" d="m691.0401 287.66998q-1.34375 0 -1.34375 -1.265625l0 -10.6875l1.640625 0q0.734375 0.140625 0.078125 0.59375l0 1.921875l8.828125 0l0 -3.9375l-11.0625 0l0 -1.625l12.765625 0l0 7.71875l-1.703125 0l0 -0.515625l-8.828125 0l0 5.40625q0 0.75 0.734375 0.75l9.359375 0q0.734375 0 0.890625 -0.890625l0.296875 -1.703125l1.703125 0.59375l-0.59375 2.4375q-0.296875 1.203125 -1.703125 1.203125l-11.0625 0zm19.890625 0.890625l-1.484375 0l0 -8.09375q-0.671875 1.703125 -2.0 3.484375l-1.046875 -1.34375q2.375 -2.96875 2.96875 -6.078125l-2.59375 0l0 -1.40625l2.671875 0l0 -3.640625l1.40625 0q0.59375 0.078125 0.078125 0.4375l0 3.203125l1.921875 0l0 1.40625l-1.921875 0l0 2.59375q1.78125 1.265625 2.59375 2.296875l-1.03125 1.421875q-0.75 -1.046875 -1.5625 -1.9375l0 7.65625zm7.265625 -3.28125q-1.328125 1.5625 -5.1875 3.34375l-0.671875 -1.625q3.1875 -1.1875 4.828125 -2.828125q-0.96875 -1.265625 -1.9375 -2.96875l1.1875 -0.8125q0.96875 1.703125 1.640625 2.515625q0.4375 -0.515625 1.40625 -3.109375l1.5625 0.8125q0.4375 0.21875 -0.296875 0.453125q-0.671875 1.625 -1.640625 2.96875q1.5625 1.25 4.6875 2.515625l-0.890625 1.640625q-3.421875 -1.5625 -4.6875 -2.90625zm-0.8125 -7.265625q0.59375 0.4375 -0.296875 0.375q-1.1875 1.1875 -3.265625 2.4375l-0.96875 -1.40625q1.9375 -0.890625 3.421875 -2.515625l1.109375 1.109375zm-3.484375 -2.0l0 -1.421875l3.5625 0l0 -3.109375l1.40625 0q0.59375 0.078125 0.078125 0.4375l0 2.671875l4.234375 0l0 1.421875l-9.28125 0zm6.078125 0.734375q2.375 1.34375 3.5 2.375l-1.046875 1.34375q-1.1875 -1.125 -3.265625 -2.375l0.8125 -1.34375z" fill-rule="nonzero"></path><path fill="#000000" d="m726.3682 274.29498q1.109375 0.078125 2.59375 0.078125l4.234375 0q-0.75 4.75 -1.859375 7.34375q1.859375 2.609375 2.75 4.015625q-0.515625 0.375 -1.1875 0.96875q-1.5625 -2.671875 -2.296875 -3.640625q-0.890625 1.5625 -1.78125 2.609375q-0.890625 1.03125 -2.234375 2.296875q-0.515625 -0.671875 -1.1875 -0.96875q1.265625 -0.890625 2.296875 -2.078125q1.046875 -1.1875 2.015625 -3.046875q-1.78125 -2.15625 -3.265625 -3.5625q0.4375 -0.375 1.03125 -0.96875q2.15625 2.375 2.890625 3.1875q0.96875 -2.671875 1.265625 -4.96875l-2.671875 0q-1.484375 0 -2.59375 0.078125l0 -1.34375zm7.125 1.640625q1.78125 0.078125 2.453125 0.078125l3.1875 0l0 -2.234375q0 -0.96875 -0.15625 -2.078125l1.71875 0q-0.078125 0.890625 -0.078125 2.234375l0 2.078125q0.734375 0 2.453125 -0.078125l0 1.328125q-1.71875 -0.0625 -2.453125 -0.0625l0 9.34375q0.078125 1.421875 -0.9375 1.78125q-1.0 0.375 -2.25 0.53125q-0.234375 -0.890625 -0.671875 -1.640625q1.625 0 2.03125 -0.1875q0.421875 -0.1875 0.34375 -1.078125l0 -8.75l-3.125 0q-0.65625 0 -2.515625 0.140625l0 -1.40625zm1.5625 2.890625q1.25 2.234375 2.140625 4.15625q-0.953125 0.375 -1.40625 0.75q-0.671875 -2.015625 -1.921875 -4.15625q0.515625 -0.234375 1.1875 -0.75z" fill-rule="nonzero"></path><path fill="#000000" fill-opacity="0.0" d="m120.34707 280.0l86.14112 80.0" fill-rule="nonzero"></path><path stroke="#ff9900" stroke-width="4.0" stroke-linejoin="round" stroke-linecap="butt" d="m120.34707 280.0l68.55529 63.667877" fill-rule="evenodd"></path><path fill="#ff9900" stroke="#ff9900" stroke-width="4.0" stroke-linecap="butt" d="m184.4063 348.50906l17.797104 7.5115967l-8.805008 -17.19397z" fill-rule="evenodd"></path><path fill="#000000" fill-opacity="0.0" d="m244.86613 224.0l0 112.0" fill-rule="nonzero"></path><path stroke="#ffff00" stroke-width="4.0" stroke-linejoin="round" stroke-linecap="butt" d="m244.86613 224.0l0 88.0" fill-rule="evenodd"></path><path fill="#ffff00" stroke="#ffff00" stroke-width="4.0" stroke-linecap="butt" d="m238.25922 312.0l6.6069183 18.152405l6.6069336 -18.152405z" fill-rule="evenodd"></path><path fill="#000000" fill-opacity="0.0" d="m283.24408 344.0l80.0 -80.0" fill-rule="nonzero"></path><path stroke="#00ff00" stroke-width="4.0" stroke-linejoin="round" stroke-linecap="butt" d="m283.24408 344.0l63.02945 -63.02945" fill-rule="evenodd"></path><path fill="#00ff00" stroke="#00ff00" stroke-width="4.0" stroke-linecap="butt" d="m350.94534 285.64236l8.163879 -17.507477l-17.507507 8.163879z" fill-rule="evenodd"></path><path fill="#000000" fill-opacity="0.0" d="m363.24408 296.0l-80.0 64.0" fill-rule="nonzero"></path><path stroke="#0000ff" stroke-width="4.0" stroke-linejoin="round" stroke-linecap="butt" d="m363.24408 296.0l-61.259125 49.007294" fill-rule="evenodd"></path><path fill="#0000ff" stroke="#0000ff" stroke-width="4.0" stroke-linecap="butt" d="m297.85764 339.84818l-10.047333 16.49884l18.301971 -6.180542z" fill-rule="evenodd"></path><path fill="#000000" fill-opacity="0.0" d="m440.0 280.0l80.0 0" fill-rule="nonzero"></path><path stroke="#00ffff" stroke-width="4.0" stroke-linejoin="round" stroke-linecap="butt" d="m440.0 280.0l56.0 0" fill-rule="evenodd"></path><path fill="#00ffff" stroke="#00ffff" stroke-width="4.0" stroke-linecap="butt" d="m496.0 286.60693l18.152405 -6.6069336l-18.152405 -6.6069336z" fill-rule="evenodd"></path><path fill="#000000" fill-opacity="0.0" d="m596.7559 280.0l80.0 0" fill-rule="nonzero"></path><path stroke="#9900ff" stroke-width="4.0" stroke-linejoin="round" stroke-linecap="butt" d="m596.7559 280.0l56.0 0" fill-rule="evenodd"></path><path fill="#9900ff" stroke="#9900ff" stroke-width="4.0" stroke-linecap="butt" d="m652.7559 286.60693l18.152405 -6.6069336l-18.152405 -6.6069336z" fill-rule="evenodd"></path><path fill="#000000" fill-opacity="0.0" d="m558.3779 304.0l-275.1496 72.0" fill-rule="nonzero"></path><path stroke="#ff00ff" stroke-width="4.0" stroke-linejoin="round" stroke-linecap="butt" d="m558.3779 304.0l-251.93134 65.92435" fill-rule="evenodd"></path><path fill="#ff00ff" stroke="#ff00ff" stroke-width="4.0" stroke-linecap="butt" d="m304.77402 363.53262l-15.88855 10.98703l19.233673 1.7964172z" fill-rule="evenodd"></path><path fill="#000000" fill-opacity="0.0" d="m753.51184 280.0l86.14111 0" fill-rule="nonzero"></path><path stroke="#999999" stroke-width="4.0" stroke-linejoin="round" stroke-linecap="butt" d="m753.51184 280.0l62.141113 0" fill-rule="evenodd"></path><path fill="#999999" stroke="#999999" stroke-width="4.0" stroke-linecap="butt" d="m815.65295 286.60693l18.152405 -6.6069336l-18.152405 -6.6069336z" fill-rule="evenodd"></path><path fill="#000000" fill-opacity="0.0" d="m715.13385 304.0l-235.13385 192.0" fill-rule="nonzero"></path><path stroke="#999999" stroke-width="4.0" stroke-linejoin="round" stroke-linecap="butt" d="m715.13385 304.0l-216.54407 176.8204" fill-rule="evenodd"></path><path fill="#999999" stroke="#999999" stroke-width="4.0" stroke-linecap="butt" d="m494.411 475.70285l-9.881592 16.598633l18.239136 -6.3635254z" fill-rule="evenodd"></path><path fill="#ff9900" d="m141.93701 312.00073l0 0c0 -7.444977 6.0353394 -13.480316 13.480316 -13.480316l0 0c3.5751953 0 7.0039673 1.4202576 9.532013 3.9483032c2.528061 2.5280457 3.9483032 5.9568176 3.9483032 9.532013l0 0c0 7.444977 -6.0353546 13.480316 -13.480316 13.480316l0 0c-7.444977 0 -13.480316 -6.0353394 -13.480316 -13.480316z" fill-rule="nonzero"></path><path fill="#ffff00" d="m231.38583 272.00073l0 0c0 -7.444977 6.0353394 -13.480316 13.480301 -13.480316l0 0c3.5752106 0 7.0039825 1.4202576 9.532028 3.9483032c2.5280457 2.5280457 3.9483032 5.9568176 3.9483032 9.532013l0 0c0 7.444977 -6.0353546 13.480316 -13.480331 13.480316l0 0c-7.4449615 0 -13.480301 -6.0353394 -13.480301 -13.480316z" fill-rule="nonzero"></path><path fill="#00ff00" d="m296.4553 315.3151l0 0c0 -7.444977 6.0353394 -13.480316 13.480316 -13.480316l0 0c3.5751953 0 7.0039673 1.420227 9.532013 3.9483032c2.5280457 2.5280457 3.9483032 5.9568176 3.9483032 9.532013l0 0c0 7.444977 -6.0353394 13.480316 -13.480316 13.480316l0 0c-7.444977 0 -13.480316 -6.0353394 -13.480316 -13.480316z" fill-rule="nonzero"></path><path fill="#0000ff" d="m328.36417 314.08044l0 0c0 -7.4449463 6.0353394 -13.480316 13.480316 -13.480316l0 0c3.5752258 0 7.003998 1.4202576 9.532043 3.9483032c2.5280457 2.5280457 3.9482727 5.9568176 3.9482727 9.532013l0 0c0 7.444977 -6.0353394 13.480316 -13.480316 13.480316l0 0c-7.444977 0 -13.480316 -6.0353394 -13.480316 -13.480316z" fill-rule="nonzero"></path><path fill="#ff00ff" d="m408.14108 339.99908l0 0c0 -7.444977 6.0353394 -13.480316 13.480316 -13.480316l0 0c3.5751953 0 7.0039673 1.4202576 9.532013 3.9483032c2.5280457 2.5280457 3.9483032 5.9568176 3.9483032 9.532013l0 0c0 7.444977 -6.0353394 13.480316 -13.480316 13.480316l0 0c-7.444977 0 -13.480316 -6.0353394 -13.480316 -13.480316z" fill-rule="nonzero"></path><path fill="#00ffff" d="m454.36447 279.99908l0 0c0 -7.444977 6.0353394 -13.480316 13.480316 -13.480316l0 0c3.5751953 0 7.0039673 1.4202576 9.532013 3.9483032c2.5280457 2.5280457 3.9483032 5.9568176 3.9483032 9.532013l0 0c0 7.444977 -6.03537 13.480316 -13.480316 13.480316l0 0c-7.444977 0 -13.480316 -6.0353394 -13.480316 -13.480316z" fill-rule="nonzero"></path><path fill="#9900ff" d="m610.89465 279.99908l0 0c0 -7.444977 6.0353394 -13.480316 13.480286 -13.480316l0 0c3.5751953 0 7.0039673 1.4202576 9.532043 3.9483032c2.5280762 2.5280457 3.9483032 5.9568176 3.9483032 9.532013l0 0c0 7.444977 -6.0353394 13.480316 -13.480347 13.480316l0 0c-7.4449463 0 -13.480286 -6.0353394 -13.480286 -13.480316z" fill-rule="nonzero"></path><path fill="#999999" d="m771.39856 279.99908l0 0c0 -7.444977 6.0353394 -13.480316 13.480347 -13.480316l0 0c3.5751953 0 7.0039673 1.4202576 9.531982 3.9483032c2.5280762 2.5280457 3.9483032 5.9568176 3.9483032 9.532013l0 0c0 7.444977 -6.0353394 13.480316 -13.480286 13.480316l0 0c-7.4450073 0 -13.480347 -6.0353394 -13.480347 -13.480316z" fill-rule="nonzero"></path><path fill="#999999" d="m596.75555 389.4794l0 0c0 -7.444977 6.0353394 -13.480316 13.480286 -13.480316l0 0c3.5751953 0 7.0039673 1.4202576 9.532043 3.9483032c2.5280151 2.5280457 3.9483032 5.9568176 3.9483032 9.532013l0 0c0 7.444977 -6.0353394 13.480316 -13.480347 13.480316l0 0c-7.4449463 0 -13.480286 -6.0353394 -13.480286 -13.480316z" fill-rule="nonzero"></path><path fill="#000000" fill-opacity="0.0" d="m131.27559 290.89764l48.283463 0l0 42.204712l-48.283463 0z" fill-rule="nonzero"></path><path fill="#000000" d="m159.83884 316.49814l0 2.421875l-9.140625 0q0.15625 -1.375 0.890625 -2.59375q0.75 -1.234375 2.9375 -3.265625q1.765625 -1.640625 2.15625 -2.234375q0.546875 -0.796875 0.546875 -1.59375q0 -0.875 -0.46875 -1.34375q-0.46875 -0.46875 -1.296875 -0.46875q-0.8125 0 -1.296875 0.5q-0.484375 0.484375 -0.5625 1.625l-2.59375 -0.25q0.234375 -2.15625 1.453125 -3.09375q1.21875 -0.9375 3.0625 -0.9375q2.015625 0 3.15625 1.09375q1.15625 1.078125 1.15625 2.6875q0 0.921875 -0.328125 1.75q-0.328125 0.828125 -1.046875 1.734375q-0.46875 0.609375 -1.703125 1.75q-1.234375 1.125 -1.5625 1.5q-0.328125 0.359375 -0.53125 0.71875l5.171875 0z" fill-rule="nonzero"></path><path fill="#000000" fill-opacity="0.0" d="m220.72441 250.89764l48.283463 0l0 42.204712l-48.283463 0z" fill-rule="nonzero"></path><path fill="#000000" d="m240.39703 275.31064l2.515625 -0.3125q0.125 0.96875 0.65625 1.484375q0.53125 0.5 1.28125 0.5q0.796875 0 1.34375 -0.609375q0.5625 -0.609375 0.5625 -1.640625q0 -0.984375 -0.53125 -1.5625q-0.53125 -0.578125 -1.28125 -0.578125q-0.5 0 -1.203125 0.203125l0.28125 -2.125q1.0625 0.015625 1.609375 -0.46875q0.5625 -0.484375 0.5625 -1.296875q0 -0.6875 -0.40625 -1.09375q-0.40625 -0.40625 -1.078125 -0.40625q-0.671875 0 -1.140625 0.46875q-0.46875 0.46875 -0.578125 1.359375l-2.40625 -0.421875q0.25 -1.234375 0.75 -1.96875q0.515625 -0.734375 1.421875 -1.15625q0.90625 -0.421875 2.03125 -0.421875q1.90625 0 3.078125 1.21875q0.953125 1.0 0.953125 2.265625q0 1.796875 -1.953125 2.859375q1.15625 0.25 1.859375 1.125q0.703125 0.875 0.703125 2.109375q0 1.78125 -1.3125 3.046875q-1.296875 1.265625 -3.25 1.265625q-1.84375 0 -3.0625 -1.0625q-1.21875 -1.0625 -1.40625 -2.78125z" fill-rule="nonzero"></path><path fill="#000000" fill-opacity="0.0" d="m285.1426 293.93527l48.283447 0l0 42.204712l-48.283447 0z" fill-rule="nonzero"></path><path fill="#000000" d="m310.01834 321.95764l0 -2.734375l-5.5625 0l0 -2.28125l5.890625 -8.640625l2.1875 0l0 8.625l1.6875 0l0 2.296875l-1.6875 0l0 2.734375l-2.515625 0zm0 -5.03125l0 -4.640625l-3.125 4.640625l3.125 0z" fill-rule="nonzero"></path><path fill="#000000" fill-opacity="0.0" d="m317.3167 292.979l48.283447 0l0 42.204712l-48.283447 0z" fill-rule="nonzero"></path><path fill="#000000" d="m345.9112 310.73575l-2.53125 0.28125q-0.09375 -0.78125 -0.484375 -1.15625q-0.375 -0.375 -1.0 -0.375q-0.828125 0 -1.40625 0.75q-0.5625 0.734375 -0.71875 3.078125q0.984375 -1.140625 2.421875 -1.140625q1.640625 0 2.796875 1.25q1.171875 1.234375 1.171875 3.203125q0 2.078125 -1.234375 3.34375q-1.21875 1.265625 -3.140625 1.265625q-2.0625 0 -3.390625 -1.59375q-1.3125 -1.609375 -1.3125 -5.25q0 -3.75 1.375 -5.390625q1.390625 -1.65625 3.59375 -1.65625q1.546875 0 2.5625 0.875q1.015625 0.859375 1.296875 2.515625zm-5.90625 5.6875q0 1.265625 0.578125 1.953125q0.59375 0.6875 1.34375 0.6875q0.71875 0 1.203125 -0.5625q0.484375 -0.5625 0.484375 -1.84375q0 -1.328125 -0.53125 -1.9375q-0.515625 -0.625 -1.296875 -0.625q-0.75 0 -1.265625 0.59375q-0.515625 0.578125 -0.515625 1.734375z" fill-rule="nonzero"></path><path fill="#000000" fill-opacity="0.0" d="m397.48032 318.89764l48.283478 0l0 42.204712l-48.283478 0z" fill-rule="nonzero"></path><path fill="#000000" d="m419.48105 339.57626q-1.015625 -0.421875 -1.484375 -1.171875q-0.453125 -0.75 -0.453125 -1.640625q0 -1.515625 1.0625 -2.5q1.0625 -1.0 3.03125 -1.0q1.9375 0 3.0 1.0q1.078125 0.984375 1.078125 2.5q0 0.953125 -0.5 1.6875q-0.484375 0.734375 -1.375 1.125q1.125 0.453125 1.71875 1.328125q0.59375 0.875 0.59375 2.015625q0 1.890625 -1.203125 3.0625q-1.203125 1.171875 -3.203125 1.171875q-1.859375 0 -3.078125 -0.96875q-1.46875 -1.15625 -1.46875 -3.15625q0 -1.09375 0.546875 -2.015625q0.546875 -0.9375 1.734375 -1.4375zm0.53125 -2.625q0 0.78125 0.4375 1.21875q0.453125 0.4375 1.1875 0.4375q0.734375 0 1.171875 -0.4375q0.453125 -0.4375 0.453125 -1.21875q0 -0.734375 -0.4375 -1.171875q-0.4375 -0.453125 -1.171875 -0.453125q-0.75 0 -1.203125 0.453125q-0.4375 0.4375 -0.4375 1.171875zm-0.234375 5.828125q0 1.078125 0.546875 1.6875q0.546875 0.59375 1.375 0.59375q0.8125 0 1.34375 -0.578125q0.53125 -0.578125 0.53125 -1.671875q0 -0.953125 -0.546875 -1.53125q-0.53125 -0.578125 -1.359375 -0.578125q-0.953125 0 -1.421875 0.65625q-0.46875 0.65625 -0.46875 1.421875z" fill-rule="nonzero"></path><path fill="#000000" fill-opacity="0.0" d="m442.86136 258.89764l48.283478 0l0 42.204712l-48.283478 0z" fill-rule="nonzero"></path><path fill="#000000" d="m462.65897 283.42l2.59375 -0.265625q0.109375 0.875 0.65625 1.390625q0.546875 0.515625 1.265625 0.515625q0.8125 0 1.375 -0.65625q0.578125 -0.671875 0.578125 -2.0q0 -1.25 -0.5625 -1.875q-0.5625 -0.625 -1.46875 -0.625q-1.109375 0 -2.0 0.984375l-2.125 -0.3125l1.34375 -7.078125l6.890625 0l0 2.453125l-4.921875 0l-0.40625 2.296875q0.875 -0.421875 1.78125 -0.421875q1.734375 0 2.9375 1.265625q1.203125 1.25 1.203125 3.265625q0 1.671875 -0.96875 3.0q-1.328125 1.796875 -3.6875 1.796875q-1.875 0 -3.0625 -1.015625q-1.1875 -1.015625 -1.421875 -2.71875z" fill-rule="nonzero"></path><path fill="#000000" fill-opacity="0.0" d="m599.61945 258.89764l48.283447 0l0 42.204712l-48.283447 0z" fill-rule="nonzero"></path><path fill="#000000" d="m619.3858 275.92l0 -2.421875l8.90625 0l0 1.90625q-1.09375 1.078125 -2.234375 3.109375q-1.140625 2.03125 -1.75 4.328125q-0.59375 2.28125 -0.578125 4.078125l-2.515625 0q0.0625 -2.828125 1.15625 -5.75q1.109375 -2.9375 2.9375 -5.25l-5.921875 0z" fill-rule="nonzero"></path><path fill="#000000" fill-opacity="0.0" d="m586.0945 368.37796l48.283447 0l0 42.204712l-48.283447 0z" fill-rule="nonzero"></path><path fill="#000000" d="m605.9077 393.2597l2.53125 -0.28125q0.09375 0.765625 0.484375 1.140625q0.390625 0.375 1.03125 0.375q0.796875 0 1.359375 -0.734375q0.578125 -0.75 0.734375 -3.09375q-0.984375 1.140625 -2.46875 1.140625q-1.59375 0 -2.765625 -1.234375q-1.15625 -1.234375 -1.15625 -3.234375q0 -2.0625 1.21875 -3.328125q1.234375 -1.265625 3.140625 -1.265625q2.0625 0 3.390625 1.609375q1.328125 1.59375 1.328125 5.25q0 3.734375 -1.390625 5.390625q-1.375 1.640625 -3.59375 1.640625q-1.59375 0 -2.578125 -0.84375q-0.984375 -0.84375 -1.265625 -2.53125zm5.90625 -5.703125q0 -1.265625 -0.578125 -1.953125q-0.578125 -0.703125 -1.34375 -0.703125q-0.71875 0 -1.203125 0.578125q-0.484375 0.5625 -0.484375 1.859375q0 1.328125 0.515625 1.953125q0.53125 0.609375 1.3125 0.609375q0.75 0 1.265625 -0.59375q0.515625 -0.59375 0.515625 -1.75z" fill-rule="nonzero"></path><path fill="#000000" fill-opacity="0.0" d="m760.4383 258.89764l48.28351 0l0 42.204712l-48.28351 0z" fill-rule="nonzero"></path><path fill="#000000" d="m780.2516 283.7794l2.53125 -0.28125q0.09375 0.765625 0.484375 1.140625q0.390625 0.375 1.03125 0.375q0.796875 0 1.359375 -0.734375q0.578125 -0.75 0.734375 -3.09375q-0.984375 1.140625 -2.46875 1.140625q-1.59375 0 -2.765625 -1.234375q-1.15625 -1.234375 -1.15625 -3.234375q0 -2.0625 1.21875 -3.328125q1.234375 -1.265625 3.140625 -1.265625q2.0625 0 3.390625 1.609375q1.328125 1.59375 1.328125 5.25q0 3.734375 -1.390625 5.390625q-1.375 1.640625 -3.59375 1.640625q-1.59375 0 -2.578125 -0.84375q-0.984375 -0.84375 -1.265625 -2.53125zm5.90625 -5.703125q0 -1.265625 -0.578125 -1.953125q-0.578125 -0.703125 -1.34375 -0.703125q-0.71875 0 -1.203125 0.578125q-0.484375 0.5625 -0.484375 1.859375q0 1.328125 0.515625 1.953125q0.53125 0.609375 1.3125 0.609375q0.75 0 1.265625 -0.59375q0.515625 -0.59375 0.515625 -1.75z" fill-rule="nonzero"></path></g></svg>

